<svg id="Logo" xmlns="http://www.w3.org/2000/svg" viewBox="0 0 991.96 677.88"><defs><style>.cls-1{fill:#fff;}</style></defs><g id="Logo-2" data-name="Logo"><path class="cls-1" d="M595.71,30.39c-7.91,13.92-18.22,37-27.62,44.63-2.1,1.7-4-.54-3-3.58C571.35,52.11,594,2,598,17.36,599,21.3,598,26.33,595.71,30.39Z"/><path class="cls-1" d="M380.26,260.45c-.69,5.39-8.5,33.39-43.7,60.39-1.79,1.38-4.22-1.31-4-3.56C334.48,298.21,349.89,272,364,258,376.27,245.8,381.83,248.27,380.26,260.45Zm167.6-125.16c-7.43,32.44-27.06,84.74-48.18,78.2,4.84-11.67,32.43-102,44.76-105.44C549.31,106.7,635.54,76.21,671,64c3.84-1.68,4.73-4.7,4.16-7.59a7.72,7.72,0,0,0-11-5.16c-18,9-95.5,42.65-117.27,34l-.07,0c.86-2.17,5.36-21.87,5.94-27,.4-3.55-4.82-5.28-8.41-6-3.06-.61-5.5,2-6.38,4.08-2,4.73-9.14,31.05-11.1,39.28h0c-31.42,16-70.43,34.44-106,47.48a100.89,100.89,0,0,0-12.58,5.58c-17.45,9.26-45.07,11.92-58,25.48-5.72,6-.18,16.05,7.94,14.31,12.56-2.69,25-13.42,37.57-19.45,10.79-5.19,100-44,123.54-54.53,3.4,5.22-41.87,114.46-43.24,116.61-26.23,41,10-40-19.16-39.51-27.79-1.67-49.22,64.34-67.3,80.2-2.05-14.42,16.64-32.36,9.4-45.58-1-1.8-4.9-4.75-6.93-5.1-5.71-1-13.84,4.92-15,6-.49.45-12,11.05-19.89,20.74C353,253,331.4,279.37,329.75,281.39c-14.76,18,4.54-64.87-38,6.56-2,3.3-21.61,40-25.93,44.15-21.35,20.69,11.46-59.2-17.52-54.76-25.45,3.89-26.21,52.83-48,71.38,2.72-5.43.62-30.44,2-47.48,1.71-21.52-5.17-26.36-15.25-16.56-5.06,5.57-112.16,116.9-164.28,288C12.56,606-6.54,710.2,83,639.11,99.67,625.89,169,552.78,197.46,513.86c11.25-15.36,58.21-75,37.09-79.08a10.33,10.33,0,0,0-11,5.51c-13,24.95-75,105.83-85.67,118-18.2,20.74-37.08,42-60.68,58.56C24.68,653.63,37.27,598,40.05,584.74c.38-1.81,41.17-159.33,144.79-267.11-1.51,44.46-33.44,164.72,27.91,48.19,4.66-8.85,21-46.72,26.94-55.67,5,15.75-6.65,76.49,19.57,51.15,1.75-1.69,14-15.44,18.73-23.45,13.81-23.3,36.69-60.84,37.37-17-1.7,11.48-1.1,13.52,4.71,18.54,8.34,5.91,21-2.72,27.57-5.76,15.26-7.1,27-17.59,28.11-18.3C416.9,290,429,214.85,448.23,217.81c6.49.95,3.89,6.82,2.46,12.68-.75,3.07-6.56,37.09-7.45,40.36a37.47,37.47,0,0,0-1.38,7.67,7.84,7.84,0,0,0,9.39,8c2.39-.46,4.77-1,6.18-2.89.72-1,15.53-25.53,17.73-28.55,16.17-22.16,48.9-7.38,71.75-73,4.31-12.36,6.43,61.79,37.84,16.63,1.54-2.22,15.66-22.83,16.72-23.38,14.23-7.46,3.94,54.45,57.67-14.09,21.47,24.85,38.64,7.68,39.07,20.89.08,2.27,9.47,14.89,14.54,14-2.24,1.1-7,3.59-8.25,4.2s-28.13,13.53-41.21,18.87c-20.38,8.33-537.82,236.52-557,247.34-4.9,2.77-13,11-8,13.56,12.66,6.52,81.25-36.1,86.39-38.7C293.72,386.23,732.9,201.69,772.9,192c-2,15.09-14.29,18.49-20.6,24.89A9.33,9.33,0,0,0,755.16,232c14.53,6.45,17.8,9.12,27.49,30.61,2.57,3.85,1.62,6.1-.35,7.93s-29.67,32-37.57,40.11c-33.47,34.47-64.2,73.18-87.19,111.81A22.76,22.76,0,0,0,654.68,439c11.89,53.08,191-51.74,158.27-138.72-13.91-40.23-9.7-33.84,29.92-64.83,32.22-25.21,82.69-56.41,119-92,42.28-41.51-6.68-31.84-39.3-21.27-12.29,4-91.29,30.28-95.79,32-10,3.93-20.25,6.69-30.69,11.12-10.87,5.42-4.85-11-11.76-20.84-21.2-30.32-44.48,18-65,29.18-24-6.15,15.47-34,17.67-51.95a9.23,9.23,0,0,0-12-9.8c-10.82,3.26-15.19,12.47-19.89,25.62-3.87,10.83-23.47,33.92-26.68,15.73-2.17-10.86,12.33-32.65-.85-30.29-1.81.32-7.93.92-11.12,3.61-11.92,10.09-28.56,57.92-45.92,43.38-8.1-11.85,21.48-47.23.62-44.95a9.16,9.16,0,0,0-7.3,5.33c-13.35,29.14-67.67,94.06-50.65,15.41,1.15-14.17,1.85-22.15-5.29-20.3C555.19,125.36,548.15,134.05,547.86,135.29Zm161.27,12.84A245.49,245.49,0,0,1,721.49,125c3.33-5.07,9.76-3.73,3.53,4.78-7.33,10-13.59,17.68-15.73,20.19C708.66,150.72,708.54,149.43,709.13,148.13Zm45.21,35c-6,2.44-19.7,7-21.27,7.63-21.36,7.78,12.09-21.24,27.33-32.76A9.07,9.07,0,0,1,773.52,160C778.52,168,776.67,174,754.34,183.08Zm44.52,134.37c-.45,27.37-9.58,50.84-29.21,70.29-8.29,11.13-33.85,25.63-35.34,27.81-2.14,1.43-32.64,19.61-43.24,22.79-.65.19-44.4,12.6-9-32.49,6.73-8.58,99.19-133.47,109.63-116.83C797,297.45,799.8,313.82,798.86,317.45ZM945.57,136.6C924,160.89,820.74,239.25,795.13,252.46a73.83,73.83,0,0,1-6.13-9.84,72,72,0,0,0-14.54-19.41c-1.84-1.68-2.39-3.47.21-6,.58-.55,6.57-8.54,8.67-11.75,4.2-6.43,7.71-12.74,7.93-21,43.92-20.56,99.66-42.32,151.19-53.18A3.24,3.24,0,0,1,945.57,136.6Z"/></g></svg>